<svg xmlns="http://www.w3.org/2000/svg"  viewBox="0 0 32 32" width="32px" height="32px" baseProfile="basic"><path fill="none" stroke="#000" stroke-linecap="round" stroke-linejoin="round" stroke-width="2" d="M20.684,14.619 c-1.253-2.259-3.104-4.131-5.038-5.394c-2.716-0.462-5.432-0.213-8.148,0.748C6.7,10.255,6.067,10.904,5.87,11.727 c-1.16,4.848-1.16,9.697,0,14.545c0.196,0.818,0.82,1.468,1.612,1.749c3.678,1.304,7.357,1.304,11.035,0 c0.793-0.281,1.417-0.932,1.613-1.75C21.059,22.387,21.244,18.503,20.684,14.619z"/><path fill="none" stroke="#000" stroke-linecap="round" stroke-linejoin="round" stroke-width="2" d="M20.749,22.902 c1.256-0.141,2.512-0.434,3.768-0.88c0.793-0.281,1.417-0.932,1.613-1.75c0.929-3.885,1.114-7.769,0.554-11.653 c-1.253-2.259-3.104-4.131-5.038-5.394c-2.716-0.462-5.432-0.213-8.148,0.748C12.7,4.255,12.067,4.904,11.87,5.727 c-0.269,1.124-0.476,2.248-0.62,3.372"/><path fill="none" stroke="#000" stroke-linecap="round" stroke-linejoin="round" stroke-width="2" d="M26.268,8.847 c-1.577,0.288-3.155,0.168-4.732-0.358c-0.52-1.417-0.661-2.833-0.424-4.25"/><path fill="none" stroke="#000" stroke-linecap="round" stroke-linejoin="round" stroke-width="2" d="M20.268,14.847 c-1.577,0.288-3.155,0.168-4.732-0.358c-0.52-1.417-0.661-2.833-0.424-4.25"/></svg>